<?xml version="1.0" encoding="UTF-8"?>
<svg id="Layer_2" data-name="Layer 2" xmlns="http://www.w3.org/2000/svg" viewBox="0 0 826.99 948.97">
  <defs>
    <style>
      .cls-1 {
        fill: #fff;
      }
    </style>
  </defs>
  <g id="Layer_1-2" data-name="Layer 1">
    <path class="cls-1" d="M281.41,939.43c20.4-8.39,26.82-27.72,26.42-48.7-.53-28.06-4.62-55.22-13.65-81.66-3.32-9.7-9.02-17.4-16.75-23.89l-19.19-16.11c-38.8-32.56-39.63-99.03-26.19-142.55,1.49-4.81,1.5-7.26,2.03-11.85,1.41-12.31,6.46-24.39,9.54-36.61.94-3.75,4.36-8.75,2.22-12.25-1.55-2.53-4.08-5.2-4.36-7.41-1.03-7.9,8.55-7.12,5.2-15.93l-6.71-17.61c-.67-1.76-.49-5.53-.03-7.66l12.07-2.5c2.66-.55,5.41-3.33,4.91-6.57-2.61-16.95-6.45-33-11.68-49.26-2.42-7.54-8.56-12.43-16.5-14.08-13.25-2.75-26.86-2.5-40.51-1.36l-41.19,3.44c-7.9.66-15.25,4.2-20.35,9.83-4.69,5.17-9.4,6.22-16.1,7.08l-39.28,5.06c-9.69,1.25-18.3-1.64-24-9.51-8.23-11.37-18.54-8.57-24.74-23.66l-12.09-5.53c-7.48-3.42-11.81-11.81-10.1-19.93.78-3.69,3.73-7.28,7.12-9.29,29.64-17.5,58.09-35.63,85.77-56.11,8.97-6.64,17.14-13.34,23.65-22.27,10.38-14.24,11.31-32.7,18.29-37.53l61.27-42.44c4.55-3.15,10.16-6.34,12.34-11.49,3.39-8,5.66-15.95,7.91-24.4,1.74-6.52,1.2-13.68-.84-20.37-15.82-51.92-13.64-72.79-21.68-122.36-.77-4.74-2.5-10.69-5.14-14.44-7.96-11.34-15.79-21.57-22.84-33.25-1.94-3.22-1.34-8.22.58-10.08,2.89-2.81,8.4-2.77,11.36.3,6.75,6.98,13.67,13.58,19.97,21.17,12.15,14.64,22.56,30,32.59,46.13,7.53,12.11,11.89,25.14,15.01,38.95,2.4,10.61,7.85,29.57,14.65,36.15l-8.26-58.96c-3.98-28.43-9.97-55.03-28.44-77.3-2.15-2.6-4.52-8.2-2.36-10.82,2.94-3.57,8.73-1.12,11.8,1.6,10.6,9.39,18.66,20.72,25.37,33.54,9.5,18.17,18.76,35.53,30.77,52.22l19.95,27.71c13.85,19.23,25.42,38.88,32.51,61.72.74,2.4,3.45,6.34,5.71,6.67,11.03,1.58,17.54,9.64,26.46,13.97,10.54,5.12,20.71,8.33,30.2,15.65,16.48,12.72,32.37,25.08,48,39,30.2,26.91,56.13,56.48,79.69,89.31,13.36,18.62,24.56,37.36,36.18,57.01l23.88,40.37,28.27,49.66c10.38,18.24,19.61,36.38,30.58,54.15,7.73,12.52,14.05,12.07,27.65,20.1,14.86,8.77-9.68,19.54-1.72,46.56,3.63,12.32-2.55,12.22,4.81,33.36,2.77,7.97,4.34,15.92,4.46,24.44.3,20.61,14.8,24.71,16.99,31.47,1.21,3.75.5,8.2,2.36,11.58l60.06,109.06c6.68,12.14,13.78,22.93,21.88,33.95,5.87,7.99,13.66,13.96,20.73,20.71,12.96,12.36,1.51,18.31,4.77,26.34,4.83,11.88,8.21,23.19,11.33,35.45l2.93,11.48-106.99.08c-11.15-15.25-21-26.21-16-45.46,1.41-5.44.64-11.92-2.88-16.41l-12.74-16.26-55.55-72.76c-6.81-8.92-15.71-15.49-23.55-23.28-8.91-8.85-29.78-28.26-42.57-30.32-8.73,32.91-11.52,56.36-31.52,84.46-2.1,2.95-1.38,6.1.65,9.08,9.23,13.6,16.38,27.65,20.52,43.61,1.19,4.57,4.92,8.3,9.25,9.46,18.35,4.93-9.09,25.41,17.8,30.44,2.92,5.6-2.22,15.17,8.05,18.65l19.14,6.48c-.52,1.11-1.4,2.07-2.48,2.34l-343.56-.02c-.16-1.22.63-2.85,1.49-3.2l15.36-6.32ZM157.76,347.48c20.13-4.87,41.55-10.01,53.83-29.62-12.5,1.11-23.59,3.71-35.66,6.59-13.83,3.3-15.87,8.16-18.18,23.02Z"/>
  </g>
</svg>